<svg xmlns="http://www.w3.org/2000/svg" x="0px" y="0px" width="30" height="30" viewBox="0,0,256,256">
    <g fill="none" fill-rule="nonzero" stroke="none" stroke-width="none" stroke-linecap="butt" stroke-linejoin="none" stroke-miterlimit="10" stroke-dasharray="" stroke-dashoffset="0" font-family="none" font-weight="none" font-size="none" text-anchor="none" style="mix-blend-mode: normal"><path transform="scale(8.53333,8.53333)" d="M20,4c4,0 6,5 6,9v5c0,1.51667 -0.6642,2.59655 -1.3418,3.18945c-0.41316,0.36151 -0.58609,0.36719 -0.86328,0.47656c-0.36088,0.93262 -2.65882,6.25615 -8.67578,6.32813c-0.03956,0.00432 -0.07935,0.00628 -0.11914,0.00586c-0.03849,0.00027 -0.07697,-0.00169 -0.11523,-0.00586c-6.01996,-0.06965 -8.31873,-5.3953 -8.67969,-6.32812c-0.27719,-0.10937 -0.45012,-0.11505 -0.86328,-0.47656c-0.6776,-0.5929 -1.3418,-1.67279 -1.3418,-3.18945v-5c0,-10 8.568,-11 11,-11c4,0 5,2 5,2z" id="strokeMainSVG" fill="#ffffff" stroke="#ffffff" stroke-width="4" stroke-linejoin="round"></path><g transform="scale(8.53333,8.53333)" fill="#3fc02e" stroke="none" stroke-width="1" stroke-linejoin="miter"><path d="M15,2c-2.432,0 -11,1 -11,11v4v1c0,1.51667 0.6642,2.59655 1.3418,3.18945c0.41316,0.36151 0.58609,0.36719 0.86328,0.47656c0.36096,0.93282 2.65973,6.25847 8.67969,6.32813c0.03827,0.00417 0.07674,0.00613 0.11523,0.00586c0.03979,0.00042 0.07958,-0.00154 0.11914,-0.00586c6.01696,-0.07198 8.3149,-5.39551 8.67578,-6.32812c0.27719,-0.10937 0.45012,-0.11505 0.86328,-0.47656c0.6776,-0.5929 1.3418,-1.67279 1.3418,-3.18945v-2v-3c0,-4 -2,-9 -6,-9c0,0 -1,-2 -5,-2zM20,8c0,0 3,2.76 3,9h1v1c0,0.98333 -0.3358,1.40345 -0.6582,1.68555c-0.3224,0.2821 -0.58398,0.34375 -0.58398,0.34375l-0.5332,0.13281l-0.17383,0.52148c0,0 -1.71745,5.31641 -7.05078,5.31641c-5.33333,0 -7.05078,-5.31641 -7.05078,-5.31641l-0.17383,-0.52148l-0.5332,-0.13281c0,0 -0.26158,-0.06165 -0.58398,-0.34375c-0.3224,-0.2821 -0.6582,-0.70221 -0.6582,-1.68555v-1h1c0,-7 10,-2 13,-9zM10.5,16c-0.82843,0 -1.5,0.67157 -1.5,1.5c0,0.82843 0.67157,1.5 1.5,1.5c0.82843,0 1.5,-0.67157 1.5,-1.5c0,-0.82843 -0.67157,-1.5 -1.5,-1.5zM19.5,16c-0.82843,0 -1.5,0.67157 -1.5,1.5c0,0.82843 0.67157,1.5 1.5,1.5c0.82843,0 1.5,-0.67157 1.5,-1.5c0,-0.82843 -0.67157,-1.5 -1.5,-1.5z"></path></g></g>
</svg>